# xmcd CD database file
#
# Track frame offsets:
#	150
#	20037
#	40441
#
# Disc length: 835 seconds
#
# Revision: 0
# Processed by: cddbd v1.5PL3 Copyright (c) Steve Scherf et al.
# Submitted via: CDex 1.50
#
DISCID=22034103
DTITLE=The Gospellers - 新大阪
DYEAR=2003
DGENRE=JPop
TTITLE0=新大阪
TTITLE1=冬物語
TTITLE2=Golden Age 〜黄金世代〜
EXTD=YEAR: 2003
EXTT0=
EXTT1=
EXTT2=
PLAYORDER=
